<?xml version="1.0" standalone="no"?>
<!DOCTYPE svg PUBLIC "-//W3C//DTD SVG 20010904//EN"
 "http://www.w3.org/TR/2001/REC-SVG-20010904/DTD/svg10.dtd">
<svg version="1.0" xmlns="http://www.w3.org/2000/svg"
 width="500.000000pt" height="500.000000pt" viewBox="0 0 500.000000 500.000000"
 preserveAspectRatio="xMidYMid meet">

<g transform="translate(0.000000,500.000000) scale(0.100000,-0.100000)"
fill="#000000" stroke="none">
<path d="M0 2500 l0 -2500 2500 0 2500 0 0 2500 0 2500 -2500 0 -2500 0 0
-2500z m2039 202 c55 -40 65 -66 69 -171 7 -166 -36 -225 -163 -225 -113 -1
-155 49 -163 192 -5 89 12 154 48 187 51 46 158 55 209 17z m392 3 c48 -25 69
-83 69 -193 0 -152 -43 -206 -165 -207 -69 0 -104 17 -136 68 -17 28 -19 46
-17 148 3 108 5 118 30 151 44 57 143 72 219 33z m-771 0 c16 -8 34 -24 40
-34 17 -32 12 -96 -9 -122 -19 -23 -19 -24 5 -52 18 -21 24 -41 24 -74 0 -39
-5 -50 -36 -80 l-36 -34 -117 3 -116 3 -3 203 -2 202 110 0 c79 0 119 -4 140
-15z m982 -60 l3 -75 79 75 c60 57 86 75 108 75 15 0 28 -5 28 -12 0 -7 -39
-52 -87 -100 l-88 -88 98 -98 c54 -54 95 -101 91 -105 -4 -4 -19 -7 -33 -7
-20 0 -47 21 -106 80 -44 44 -83 80 -87 80 -5 0 -8 -36 -8 -81 l0 -80 -27 3
-28 3 -3 190 c-1 104 0 195 2 202 3 7 17 13 30 13 24 0 25 -3 28 -75z m411
-48 l61 -119 60 119 c57 111 63 118 91 118 l30 0 2 -188 c1 -104 -1 -195 -4
-203 -3 -9 -16 -14 -32 -12 l-26 3 0 133 c0 72 -2 132 -5 132 -3 0 -25 -39
-49 -86 -38 -77 -45 -85 -68 -82 -22 2 -34 18 -75 96 l-48 94 0 -146 0 -146
-30 0 -30 0 0 206 0 205 31 -3 c28 -3 35 -12 92 -121z m550 43 c15 -41 32 -86
37 -100 5 -14 25 -67 44 -119 20 -51 36 -98 36 -102 0 -5 -13 -9 -29 -9 -26 0
-31 5 -43 43 l-15 42 -95 3 -96 3 -14 -43 c-13 -37 -19 -43 -46 -46 -18 -2
-32 0 -32 3 0 4 30 87 66 184 37 97 71 186 75 199 8 19 15 23 46 20 37 -3 38
-5 66 -78z m431 49 c68 -59 60 -150 -18 -203 -17 -11 -15 -16 27 -87 47 -75
48 -93 6 -87 -17 2 -35 24 -68 81 l-45 77 -48 0 -48 0 0 -80 0 -80 -30 0 -30
0 0 205 0 205 110 0 c108 0 110 0 144 -31z m186 -46 l0 -78 78 78 c64 64 83
77 110 77 17 0 32 -3 32 -7 0 -4 -40 -48 -90 -98 l-89 -90 94 -97 c52 -54 95
-102 95 -108 0 -5 -15 -10 -32 -10 -28 1 -46 14 -113 81 l-80 80 -3 -81 -3
-80 -29 0 -30 0 0 205 0 205 30 0 30 0 0 -77z m-3199 -143 c0 -85 -4 -156 -9
-158 -5 -1 -35 25 -66 59 l-58 61 -62 -61 c-34 -33 -65 -61 -69 -61 -9 0 -9
304 0 314 4 3 65 5 136 4 l128 -3 0 -155z"/>
<path d="M1876 2639 c-27 -32 -31 -56 -27 -158 4 -87 30 -120 94 -121 76 0
107 45 107 156 0 110 -30 154 -104 154 -37 0 -48 -5 -70 -31z"/>
<path d="M2269 2641 c-28 -29 -29 -33 -29 -126 0 -93 1 -97 29 -126 51 -50
130 -37 157 26 19 46 18 168 -1 205 -31 59 -107 69 -156 21z"/>
<path d="M1479 2668 c-5 -15 -6 -69 -2 -90 4 -27 7 -28 67 -28 74 0 106 18
106 60 0 42 -32 60 -107 60 -35 0 -63 -1 -64 -2z"/>
<path d="M1476 2470 c-3 -18 -6 -50 -6 -71 l0 -39 73 0 c60 0 77 4 95 20 27
25 28 60 3 91 -15 19 -30 24 -88 27 l-70 4 -7 -32z"/>
<path d="M3502 2561 c-18 -49 -32 -93 -32 -100 0 -7 25 -11 70 -11 39 0 70 2
70 4 0 3 -13 40 -30 83 -16 42 -30 83 -30 90 0 6 -4 14 -8 17 -5 3 -23 -35
-40 -83z"/>
<path d="M3840 2595 l0 -77 70 4 c82 4 104 20 104 73 0 53 -22 69 -104 73
l-70 4 0 -77z"/>
</g>
</svg>
